<svg width="643" height="635" viewBox="0 0 643 635" fill="none" xmlns="http://www.w3.org/2000/svg">
<path fill-rule="evenodd" clip-rule="evenodd" d="M640.185 242.344L642.264 244.38L639.581 248.6C639.662 247.626 639.764 246.653 639.867 245.679C639.983 244.567 640.1 243.456 640.185 242.344ZM640.185 242.344C640.265 241.313 640.317 240.282 640.317 239.251C640.329 216.892 640.323 194.532 640.317 172.172C640.303 118.51 640.289 64.8492 640.533 11.1879C640.576 1.73123 637.027 0 628.544 0C580.864 0.287808 533.176 0.410713 485.489 0.533612C457.88 0.604767 430.272 0.67592 402.667 0.779073C400.056 0.903855 397.474 1.36942 394.984 2.164L640.185 242.344ZM230.233 125.518C214.608 125.557 198.986 125.595 183.364 125.595L21.0638 125.357C5.15839 125.357 1.21995 129.252 1.21995 145.006C1.21429 164.277 1.22495 183.547 1.23561 202.817C1.26566 257.123 1.2957 311.428 0.960285 365.734C0.895365 376.359 3.23248 379.757 14.5502 379.757C55.4298 379.502 96.2847 379.489 137.128 379.475C172.736 379.464 208.335 379.452 243.934 379.281C253.845 379.237 256.723 382.007 256.723 392.005C256.545 427.037 256.539 462.051 256.533 497.056C256.526 538.509 256.519 579.949 256.225 621.388C256.139 632.836 259.623 635 270.226 635C327.516 634.67 384.755 634.705 441.992 634.74C459.755 634.751 477.518 634.762 495.282 634.762C510.625 634.762 510.625 634.74 510.625 619.722V215.206C510.644 193.069 510.958 170.949 511.271 148.815C511.308 146.197 511.346 143.578 511.382 140.96C511.512 132.974 509.478 128.105 499.935 128.105C471.919 127.806 443.902 127.348 415.889 126.89C385.263 126.389 354.64 125.889 324.023 125.595C292.745 125.364 261.485 125.441 230.233 125.518Z" fill="#FA4319"/>
</svg>
