<svg xmlns="http://www.w3.org/2000/svg" viewBox="0 0 880 820" preserveAspectRatio="xMidYMid slice" width="880" height="820">
  <defs>
    <radialGradient id="bg" cx="46%" cy="32%" r="95%">
      <stop offset="0%" stop-color="#17243d"/>
      <stop offset="100%" stop-color="#0b1424"/>
    </radialGradient>
    <radialGradient id="vg" cx="50%" cy="42%" r="78%">
      <stop offset="52%" stop-color="#0b1424" stop-opacity="0"/>
      <stop offset="100%" stop-color="#0b1424" stop-opacity="0.72"/>
    </radialGradient>
    <filter id="glow" x="-30%" y="-30%" width="160%" height="160%">
      <feGaussianBlur stdDeviation="1.8" result="b"/>
      <feMerge><feMergeNode in="b"/><feMergeNode in="SourceGraphic"/></feMerge>
    </filter>
  </defs>
  <rect width="880" height="820" fill="url(#bg)"/>
  <g><rect x="377.0" y="515.4" width="92" height="138" rx="4" fill="none" stroke="#2f63d8" stroke-width="1.2" opacity="0.24"/><line x1="390.1" y1="509.4" x2="390.1" y2="515.4" stroke="#2f63d8" stroke-width="1" opacity="0.18"/><line x1="390.1" y1="653.4" x2="390.1" y2="659.4" stroke="#2f63d8" stroke-width="1" opacity="0.18"/><line x1="403.3" y1="509.4" x2="403.3" y2="515.4" stroke="#2f63d8" stroke-width="1" opacity="0.18"/><line x1="403.3" y1="653.4" x2="403.3" y2="659.4" stroke="#2f63d8" stroke-width="1" opacity="0.18"/><line x1="416.4" y1="509.4" x2="416.4" y2="515.4" stroke="#2f63d8" stroke-width="1" opacity="0.18"/><line x1="416.4" y1="653.4" x2="416.4" y2="659.4" stroke="#2f63d8" stroke-width="1" opacity="0.18"/><line x1="429.6" y1="509.4" x2="429.6" y2="515.4" stroke="#2f63d8" stroke-width="1" opacity="0.18"/><line x1="429.6" y1="653.4" x2="429.6" y2="659.4" stroke="#2f63d8" stroke-width="1" opacity="0.18"/><line x1="442.7" y1="509.4" x2="442.7" y2="515.4" stroke="#2f63d8" stroke-width="1" opacity="0.18"/><line x1="442.7" y1="653.4" x2="442.7" y2="659.4" stroke="#2f63d8" stroke-width="1" opacity="0.18"/><line x1="455.8" y1="509.4" x2="455.8" y2="515.4" stroke="#2f63d8" stroke-width="1" opacity="0.18"/><line x1="455.8" y1="653.4" x2="455.8" y2="659.4" stroke="#2f63d8" stroke-width="1" opacity="0.18"/><rect x="404.6" y="556.8" width="36.8" height="55.2" rx="2" fill="#2f63d8" opacity="0.12"/><rect x="140.3" y="127.9" width="92" height="92" rx="4" fill="none" stroke="#2f63d8" stroke-width="1.2" opacity="0.24"/><line x1="153.4" y1="121.9" x2="153.4" y2="127.9" stroke="#2f63d8" stroke-width="1" opacity="0.18"/><line x1="153.4" y1="219.9" x2="153.4" y2="225.9" stroke="#2f63d8" stroke-width="1" opacity="0.18"/><line x1="166.6" y1="121.9" x2="166.6" y2="127.9" stroke="#2f63d8" stroke-width="1" opacity="0.18"/><line x1="166.6" y1="219.9" x2="166.6" y2="225.9" stroke="#2f63d8" stroke-width="1" opacity="0.18"/><line x1="179.7" y1="121.9" x2="179.7" y2="127.9" stroke="#2f63d8" stroke-width="1" opacity="0.18"/><line x1="179.7" y1="219.9" x2="179.7" y2="225.9" stroke="#2f63d8" stroke-width="1" opacity="0.18"/><line x1="192.9" y1="121.9" x2="192.9" y2="127.9" stroke="#2f63d8" stroke-width="1" opacity="0.18"/><line x1="192.9" y1="219.9" x2="192.9" y2="225.9" stroke="#2f63d8" stroke-width="1" opacity="0.18"/><line x1="206.0" y1="121.9" x2="206.0" y2="127.9" stroke="#2f63d8" stroke-width="1" opacity="0.18"/><line x1="206.0" y1="219.9" x2="206.0" y2="225.9" stroke="#2f63d8" stroke-width="1" opacity="0.18"/><line x1="219.1" y1="121.9" x2="219.1" y2="127.9" stroke="#2f63d8" stroke-width="1" opacity="0.18"/><line x1="219.1" y1="219.9" x2="219.1" y2="225.9" stroke="#2f63d8" stroke-width="1" opacity="0.18"/><rect x="167.9" y="155.5" width="36.8" height="36.8" rx="2" fill="#2f63d8" opacity="0.12"/><rect x="350.9" y="242.3" width="138" height="92" rx="4" fill="none" stroke="#2f63d8" stroke-width="1.2" opacity="0.24"/><line x1="363.4" y1="236.3" x2="363.4" y2="242.3" stroke="#2f63d8" stroke-width="1" opacity="0.18"/><line x1="363.4" y1="334.3" x2="363.4" y2="340.3" stroke="#2f63d8" stroke-width="1" opacity="0.18"/><line x1="375.9" y1="236.3" x2="375.9" y2="242.3" stroke="#2f63d8" stroke-width="1" opacity="0.18"/><line x1="375.9" y1="334.3" x2="375.9" y2="340.3" stroke="#2f63d8" stroke-width="1" opacity="0.18"/><line x1="388.5" y1="236.3" x2="388.5" y2="242.3" stroke="#2f63d8" stroke-width="1" opacity="0.18"/><line x1="388.5" y1="334.3" x2="388.5" y2="340.3" stroke="#2f63d8" stroke-width="1" opacity="0.18"/><line x1="401.0" y1="236.3" x2="401.0" y2="242.3" stroke="#2f63d8" stroke-width="1" opacity="0.18"/><line x1="401.0" y1="334.3" x2="401.0" y2="340.3" stroke="#2f63d8" stroke-width="1" opacity="0.18"/><line x1="413.6" y1="236.3" x2="413.6" y2="242.3" stroke="#2f63d8" stroke-width="1" opacity="0.18"/><line x1="413.6" y1="334.3" x2="413.6" y2="340.3" stroke="#2f63d8" stroke-width="1" opacity="0.18"/><line x1="426.1" y1="236.3" x2="426.1" y2="242.3" stroke="#2f63d8" stroke-width="1" opacity="0.18"/><line x1="426.1" y1="334.3" x2="426.1" y2="340.3" stroke="#2f63d8" stroke-width="1" opacity="0.18"/><line x1="438.7" y1="236.3" x2="438.7" y2="242.3" stroke="#2f63d8" stroke-width="1" opacity="0.18"/><line x1="438.7" y1="334.3" x2="438.7" y2="340.3" stroke="#2f63d8" stroke-width="1" opacity="0.18"/><line x1="451.2" y1="236.3" x2="451.2" y2="242.3" stroke="#2f63d8" stroke-width="1" opacity="0.18"/><line x1="451.2" y1="334.3" x2="451.2" y2="340.3" stroke="#2f63d8" stroke-width="1" opacity="0.18"/><line x1="463.8" y1="236.3" x2="463.8" y2="242.3" stroke="#2f63d8" stroke-width="1" opacity="0.18"/><line x1="463.8" y1="334.3" x2="463.8" y2="340.3" stroke="#2f63d8" stroke-width="1" opacity="0.18"/><line x1="476.3" y1="236.3" x2="476.3" y2="242.3" stroke="#2f63d8" stroke-width="1" opacity="0.18"/><line x1="476.3" y1="334.3" x2="476.3" y2="340.3" stroke="#2f63d8" stroke-width="1" opacity="0.18"/><rect x="392.3" y="269.9" width="55.2" height="36.8" rx="2" fill="#2f63d8" opacity="0.12"/><rect x="295.8" y="300.3" width="92" height="92" rx="4" fill="none" stroke="#2f63d8" stroke-width="1.2" opacity="0.24"/><line x1="308.9" y1="294.3" x2="308.9" y2="300.3" stroke="#2f63d8" stroke-width="1" opacity="0.18"/><line x1="308.9" y1="392.3" x2="308.9" y2="398.3" stroke="#2f63d8" stroke-width="1" opacity="0.18"/><line x1="322.1" y1="294.3" x2="322.1" y2="300.3" stroke="#2f63d8" stroke-width="1" opacity="0.18"/><line x1="322.1" y1="392.3" x2="322.1" y2="398.3" stroke="#2f63d8" stroke-width="1" opacity="0.18"/><line x1="335.2" y1="294.3" x2="335.2" y2="300.3" stroke="#2f63d8" stroke-width="1" opacity="0.18"/><line x1="335.2" y1="392.3" x2="335.2" y2="398.3" stroke="#2f63d8" stroke-width="1" opacity="0.18"/><line x1="348.4" y1="294.3" x2="348.4" y2="300.3" stroke="#2f63d8" stroke-width="1" opacity="0.18"/><line x1="348.4" y1="392.3" x2="348.4" y2="398.3" stroke="#2f63d8" stroke-width="1" opacity="0.18"/><line x1="361.5" y1="294.3" x2="361.5" y2="300.3" stroke="#2f63d8" stroke-width="1" opacity="0.18"/><line x1="361.5" y1="392.3" x2="361.5" y2="398.3" stroke="#2f63d8" stroke-width="1" opacity="0.18"/><line x1="374.7" y1="294.3" x2="374.7" y2="300.3" stroke="#2f63d8" stroke-width="1" opacity="0.18"/><line x1="374.7" y1="392.3" x2="374.7" y2="398.3" stroke="#2f63d8" stroke-width="1" opacity="0.18"/><rect x="323.4" y="327.9" width="36.8" height="36.8" rx="2" fill="#2f63d8" opacity="0.12"/></g>
  <g><rect x="732.0" y="-2.9" width="6.0" height="6.0" rx="1" fill="#2f63d8" opacity="0.36"/><rect x="774.7" y="-1.9" width="6.0" height="6.0" rx="1" fill="#2f63d8" opacity="0.29"/><rect x="866.4" y="-4.9" width="8.0" height="8.0" rx="1" fill="#2f63d8" opacity="0.24"/><rect x="43.8" y="38.5" width="6.0" height="6.0" rx="1" fill="#2f63d8" opacity="0.28"/><rect x="139.7" y="45.8" width="6.0" height="6.0" rx="1" fill="#2f63d8" opacity="0.28"/><rect x="182.4" y="46.2" width="6.0" height="6.0" rx="1" fill="#2f63d8" opacity="0.35"/><rect x="229.3" y="41.3" width="6.0" height="6.0" rx="1" fill="#2f63d8" opacity="0.24"/><rect x="549.4" y="47.1" width="6.0" height="6.0" rx="1" fill="#2f63d8" opacity="0.24"/><rect x="689.5" y="42.2" width="8.0" height="8.0" rx="1" fill="#2f63d8" opacity="0.21"/><rect x="821.3" y="87.2" width="10.0" height="10.0" rx="1" fill="#2f63d8" opacity="0.26"/><rect x="45.5" y="135.2" width="10.0" height="10.0" rx="1" fill="#2f63d8" opacity="0.17"/><rect x="83.3" y="133.3" width="10.0" height="10.0" rx="1" fill="#2f63d8" opacity="0.23"/><rect x="870.1" y="128.2" width="10.0" height="10.0" rx="1" fill="#2f63d8" opacity="0.21"/><rect x="44.2" y="178.8" width="10.0" height="10.0" rx="1" fill="#2f63d8" opacity="0.30"/><rect x="596.3" y="179.6" width="6.0" height="6.0" rx="1" fill="#2f63d8" opacity="0.25"/><rect x="820.1" y="179.4" width="10.0" height="10.0" rx="1" fill="#2f63d8" opacity="0.27"/><rect x="415.4" y="225.2" width="6.0" height="6.0" rx="1" fill="#2f63d8" opacity="0.21"/><rect x="459.8" y="223.7" width="6.0" height="6.0" rx="1" fill="#2f63d8" opacity="0.20"/><rect x="635.3" y="222.5" width="10.0" height="10.0" rx="1" fill="#2f63d8" opacity="0.31"/><rect x="778.5" y="222.2" width="8.0" height="8.0" rx="1" fill="#2f63d8" opacity="0.22"/><rect x="185.0" y="269.9" width="6.0" height="6.0" rx="1" fill="#2f63d8" opacity="0.29"/><rect x="498.2" y="270.8" width="6.0" height="6.0" rx="1" fill="#2f63d8" opacity="0.18"/><rect x="596.4" y="275.8" width="8.0" height="8.0" rx="1" fill="#2f63d8" opacity="0.18"/><rect x="686.1" y="271.5" width="6.0" height="6.0" rx="1" fill="#2f63d8" opacity="0.17"/><rect x="227.0" y="314.2" width="10.0" height="10.0" rx="1" fill="#2f63d8" opacity="0.27"/><rect x="314.9" y="317.9" width="6.0" height="6.0" rx="1" fill="#2f63d8" opacity="0.31"/><rect x="2.0" y="360.0" width="6.0" height="6.0" rx="1" fill="#2f63d8" opacity="0.33"/><rect x="367.1" y="366.9" width="6.0" height="6.0" rx="1" fill="#2f63d8" opacity="0.35"/><rect x="503.7" y="367.2" width="6.0" height="6.0" rx="1" fill="#2f63d8" opacity="0.29"/><rect x="866.0" y="358.4" width="10.0" height="10.0" rx="1" fill="#2f63d8" opacity="0.35"/><rect x="271.6" y="412.6" width="10.0" height="10.0" rx="1" fill="#2f63d8" opacity="0.16"/><rect x="458.9" y="406.9" width="6.0" height="6.0" rx="1" fill="#2f63d8" opacity="0.30"/><rect x="867.6" y="409.0" width="6.0" height="6.0" rx="1" fill="#2f63d8" opacity="0.34"/><rect x="130.8" y="461.5" width="6.0" height="6.0" rx="1" fill="#2f63d8" opacity="0.23"/><rect x="361.9" y="454.6" width="6.0" height="6.0" rx="1" fill="#2f63d8" opacity="0.25"/><rect x="599.5" y="505.1" width="6.0" height="6.0" rx="1" fill="#2f63d8" opacity="0.26"/><rect x="820.4" y="499.7" width="10.0" height="10.0" rx="1" fill="#2f63d8" opacity="0.21"/><rect x="45.8" y="550.8" width="6.0" height="6.0" rx="1" fill="#2f63d8" opacity="0.18"/><rect x="184.8" y="549.8" width="8.0" height="8.0" rx="1" fill="#2f63d8" opacity="0.25"/><rect x="415.1" y="553.3" width="6.0" height="6.0" rx="1" fill="#2f63d8" opacity="0.23"/><rect x="508.0" y="592.0" width="6.0" height="6.0" rx="1" fill="#2f63d8" opacity="0.27"/><rect x="90.2" y="639.6" width="10.0" height="10.0" rx="1" fill="#2f63d8" opacity="0.22"/><rect x="268.9" y="639.6" width="6.0" height="6.0" rx="1" fill="#2f63d8" opacity="0.31"/><rect x="319.2" y="645.1" width="6.0" height="6.0" rx="1" fill="#2f63d8" opacity="0.17"/><rect x="366.1" y="641.4" width="8.0" height="8.0" rx="1" fill="#2f63d8" opacity="0.19"/><rect x="690.6" y="636.7" width="6.0" height="6.0" rx="1" fill="#2f63d8" opacity="0.28"/><rect x="183.6" y="689.7" width="6.0" height="6.0" rx="1" fill="#2f63d8" opacity="0.35"/><rect x="269.5" y="692.0" width="6.0" height="6.0" rx="1" fill="#2f63d8" opacity="0.30"/><rect x="645.9" y="688.5" width="6.0" height="6.0" rx="1" fill="#2f63d8" opacity="0.36"/><rect x="414.3" y="732.3" width="6.0" height="6.0" rx="1" fill="#2f63d8" opacity="0.30"/><rect x="458.7" y="729.7" width="10.0" height="10.0" rx="1" fill="#2f63d8" opacity="0.35"/><rect x="592.1" y="737.4" width="6.0" height="6.0" rx="1" fill="#2f63d8" opacity="0.18"/><rect x="634.2" y="731.8" width="10.0" height="10.0" rx="1" fill="#2f63d8" opacity="0.25"/><rect x="-1.1" y="774.0" width="6.0" height="6.0" rx="1" fill="#2f63d8" opacity="0.24"/><rect x="222.8" y="776.9" width="10.0" height="10.0" rx="1" fill="#2f63d8" opacity="0.34"/><rect x="269.3" y="774.5" width="6.0" height="6.0" rx="1" fill="#2f63d8" opacity="0.26"/><rect x="506.0" y="780.2" width="8.0" height="8.0" rx="1" fill="#2f63d8" opacity="0.35"/><rect x="598.0" y="780.9" width="10.0" height="10.0" rx="1" fill="#2f63d8" opacity="0.31"/><rect x="731.7" y="776.5" width="6.0" height="6.0" rx="1" fill="#2f63d8" opacity="0.29"/><rect x="827.2" y="775.2" width="6.0" height="6.0" rx="1" fill="#2f63d8" opacity="0.18"/><rect x="869.5" y="773.6" width="8.0" height="8.0" rx="1" fill="#2f63d8" opacity="0.22"/><rect x="133.5" y="825.1" width="6.0" height="6.0" rx="1" fill="#2f63d8" opacity="0.33"/><rect x="590.8" y="821.6" width="6.0" height="6.0" rx="1" fill="#2f63d8" opacity="0.16"/><rect x="685.1" y="824.6" width="10.0" height="10.0" rx="1" fill="#2f63d8" opacity="0.26"/><rect x="819.1" y="827.7" width="10.0" height="10.0" rx="1" fill="#2f63d8" opacity="0.30"/></g>
  <g><path d="M 41.6 646.6 L 179.6 646.6 L 179.6 646.6" fill="none" stroke="#2f63d8" stroke-width="1.4" opacity="0.15"/><path d="M 42.9 417.7 L 180.9 417.7 L 180.9 417.7" fill="none" stroke="#2f63d8" stroke-width="1.4" opacity="0.20"/><path d="M 234.4 457.4 L 234.4 457.4 L 234.4 687.4" fill="none" stroke="#2f63d8" stroke-width="1.4" opacity="0.21"/><path d="M 464.1 181.4 L 602.1 181.4 L 602.1 43.4" fill="none" stroke="#2f63d8" stroke-width="1.4" opacity="0.29"/><path d="M 276.8 318.6 L 506.8 318.6 L 506.8 548.6" fill="none" stroke="#2f63d8" stroke-width="1.4" opacity="0.23"/><path d="M 322.2 183.3 L 414.2 183.3 L 414.2 183.3" fill="none" stroke="#2f63d8" stroke-width="1.4" opacity="0.14"/><path d="M 640.3 227.5 L 640.3 227.5 L 640.3 411.5" fill="none" stroke="#2f63d8" stroke-width="1.4" opacity="0.17"/><path d="M 461.9 409.9 L 553.9 409.9 L 553.9 409.9" fill="none" stroke="#2f63d8" stroke-width="1.4" opacity="0.19"/><path d="M 548.9 370.6 L 548.9 370.6 L 548.9 600.6" fill="none" stroke="#2f63d8" stroke-width="1.4" opacity="0.28"/><path d="M 688.0 363.6 L 688.0 363.6 L 688.0 455.6" fill="none" stroke="#2f63d8" stroke-width="1.4" opacity="0.24"/><path d="M 46.6 370.1 L 138.6 370.1 L 138.6 370.1" fill="none" stroke="#2f63d8" stroke-width="1.4" opacity="0.19"/><path d="M 318.4 411.6 L 318.4 411.6 L 318.4 549.6" fill="none" stroke="#2f63d8" stroke-width="1.4" opacity="0.28"/><path d="M 603.0 785.9 L 833.0 785.9 L 833.0 555.9" fill="none" stroke="#2f63d8" stroke-width="1.4" opacity="0.30"/><path d="M 49.4 502.4 L 49.4 502.4 L 49.4 732.4" fill="none" stroke="#2f63d8" stroke-width="1.4" opacity="0.23"/><path d="M 49.4 599.8 L 49.4 599.8 L 49.4 737.8" fill="none" stroke="#2f63d8" stroke-width="1.4" opacity="0.25"/><path d="M 1.8 230.1 L 93.8 230.1 L 93.8 230.1" fill="none" stroke="#2f63d8" stroke-width="1.4" opacity="0.12"/><path d="M 317.0 740.6 L 409.0 740.6 L 409.0 648.6" fill="none" stroke="#2f63d8" stroke-width="1.4" opacity="0.14"/><path d="M 4.9 460.5 L 234.9 460.5 L 234.9 460.5" fill="none" stroke="#2f63d8" stroke-width="1.4" opacity="0.12"/><path d="M 554.2 138.4 L 692.2 138.4 L 692.2 276.4" fill="none" stroke="#2f63d8" stroke-width="1.4" opacity="0.17"/><path d="M 92.2 501.3 L 230.2 501.3 L 230.2 639.3" fill="none" stroke="#2f63d8" stroke-width="1.4" opacity="0.20"/><path d="M 95.2 644.6 L 233.2 644.6 L 233.2 782.6" fill="none" stroke="#2f63d8" stroke-width="1.4" opacity="0.28"/><path d="M 463.6 141.6 L 463.6 141.6 L 463.6 371.6" fill="none" stroke="#2f63d8" stroke-width="1.4" opacity="0.28"/><path d="M 599.7 366.0 L 737.7 366.0 L 737.7 504.0" fill="none" stroke="#2f63d8" stroke-width="1.4" opacity="0.27"/><path d="M 233.8 188.0 L 371.8 188.0 L 371.8 50.0" fill="none" stroke="#2f63d8" stroke-width="1.4" opacity="0.11"/><path d="M 648.1 364.2 L 740.1 364.2 L 740.1 456.2" fill="none" stroke="#2f63d8" stroke-width="1.4" opacity="0.16"/><path d="M 455.9 -2.9 L 455.9 -2.9 L 455.9 181.1" fill="none" stroke="#2f63d8" stroke-width="1.4" opacity="0.18"/><path d="M 274.8 460.1 L 274.8 460.1 L 274.8 690.1" fill="none" stroke="#2f63d8" stroke-width="1.4" opacity="0.23"/><path d="M 5.0 363.0 L 97.0 363.0 L 97.0 363.0" fill="none" stroke="#2f63d8" stroke-width="1.4" opacity="0.14"/><path d="M 690.1 599.6 L 828.1 599.6 L 828.1 737.6" fill="none" stroke="#2f63d8" stroke-width="1.4" opacity="0.17"/><path d="M 504.9 41.3 L 642.9 41.3 L 642.9 41.3" fill="none" stroke="#2f63d8" stroke-width="1.4" opacity="0.30"/><path d="M 412.0 138.9 L 642.0 138.9 L 642.0 368.9" fill="none" stroke="#2f63d8" stroke-width="1.4" opacity="0.21"/><path d="M 643.1 507.7 L 781.1 507.7 L 781.1 507.7" fill="none" stroke="#2f63d8" stroke-width="1.4" opacity="0.12"/><path d="M 734.4 414.4 L 734.4 414.4 L 734.4 644.4" fill="none" stroke="#2f63d8" stroke-width="1.4" opacity="0.28"/><path d="M 693.5 46.2 L 785.5 46.2 L 785.5 46.2" fill="none" stroke="#2f63d8" stroke-width="1.4" opacity="0.11"/><path d="M 135.7 88.4 L 135.7 88.4 L 135.7 318.4" fill="none" stroke="#2f63d8" stroke-width="1.4" opacity="0.17"/><path d="M -0.3 274.9 L 183.7 274.9 L 183.7 274.9" fill="none" stroke="#2f63d8" stroke-width="1.4" opacity="0.24"/><path d="M 233.3 504.1 L 417.3 504.1 L 417.3 320.1" fill="none" stroke="#2f63d8" stroke-width="1.4" opacity="0.24"/><path d="M 641.0 275.6 L 779.0 275.6 L 779.0 413.6" fill="none" stroke="#2f63d8" stroke-width="1.4" opacity="0.21"/><path d="M 553.0 596.2 L 645.0 596.2 L 645.0 596.2" fill="none" stroke="#2f63d8" stroke-width="1.4" opacity="0.20"/><path d="M 827.3 371.8 L 827.3 371.8 L 827.3 509.8" fill="none" stroke="#2f63d8" stroke-width="1.4" opacity="0.15"/><path d="M -0.8 93.9 L 137.2 93.9 L 137.2 231.9" fill="none" stroke="#2f63d8" stroke-width="1.4" opacity="0.30"/><path d="M 510.2 461.6 L 694.2 461.6 L 694.2 277.6" fill="none" stroke="#2f63d8" stroke-width="1.4" opacity="0.20"/><path d="M 49.4 502.4 L 187.4 502.4 L 187.4 502.4" fill="none" stroke="#2f63d8" stroke-width="1.4" opacity="0.11"/><path d="M 48.8 -3.3 L 232.8 -3.3 L 232.8 180.7" fill="none" stroke="#2f63d8" stroke-width="1.4" opacity="0.14"/><path d="M 737.3 49.0 L 737.3 49.0 L 737.3 141.0" fill="none" stroke="#2f63d8" stroke-width="1.4" opacity="0.16"/><path d="M 550.7 507.0 L 734.7 507.0 L 734.7 507.0" fill="none" stroke="#2f63d8" stroke-width="1.4" opacity="0.16"/><path d="M 780.3 505.5 L 780.3 505.5 L 780.3 597.5" fill="none" stroke="#2f63d8" stroke-width="1.4" opacity="0.25"/><path d="M 49.4 502.4 L 49.4 502.4 L 49.4 640.4" fill="none" stroke="#2f63d8" stroke-width="1.4" opacity="0.18"/><path d="M 780.3 505.5 L 872.3 505.5 L 872.3 597.5" fill="none" stroke="#2f63d8" stroke-width="1.4" opacity="0.23"/><path d="M 461.9 409.9 L 553.9 409.9 L 553.9 501.9" fill="none" stroke="#2f63d8" stroke-width="1.4" opacity="0.26"/><path d="M 184.7 232.9 L 322.7 232.9 L 322.7 232.9" fill="none" stroke="#2f63d8" stroke-width="1.4" opacity="0.29"/><path d="M 547.9 233.7 L 685.9 233.7 L 685.9 233.7" fill="none" stroke="#2f63d8" stroke-width="1.4" opacity="0.18"/><path d="M 693.9 325.2 L 693.9 325.2 L 693.9 555.2" fill="none" stroke="#2f63d8" stroke-width="1.4" opacity="0.26"/><path d="M 93.8 182.8 L 185.8 182.8 L 185.8 182.8" fill="none" stroke="#2f63d8" stroke-width="1.4" opacity="0.22"/><path d="M 414.9 779.2 L 506.9 779.2 L 506.9 779.2" fill="none" stroke="#2f63d8" stroke-width="1.4" opacity="0.28"/><path d="M 185.4 49.2 L 185.4 49.2 L 185.4 141.2" fill="none" stroke="#2f63d8" stroke-width="1.4" opacity="0.24"/><path d="M 47.1 694.6 L 277.1 694.6 L 277.1 694.6" fill="none" stroke="#2f63d8" stroke-width="1.4" opacity="0.27"/><path d="M 372.2 90.2 L 556.2 90.2 L 556.2 274.2" fill="none" stroke="#2f63d8" stroke-width="1.4" opacity="0.23"/><path d="M 228.5 89.6 L 458.5 89.6 L 458.5 319.6" fill="none" stroke="#2f63d8" stroke-width="1.4" opacity="0.14"/><path d="M 504.1 501.0 L 642.1 501.0 L 642.1 639.0" fill="none" stroke="#2f63d8" stroke-width="1.4" opacity="0.16"/><path d="M 554.2 138.4 L 692.2 138.4 L 692.2 138.4" fill="none" stroke="#2f63d8" stroke-width="1.4" opacity="0.28"/><path d="M 233.8 188.0 L 325.8 188.0 L 325.8 280.0" fill="none" stroke="#2f63d8" stroke-width="1.4" opacity="0.26"/><path d="M 601.7 228.1 L 739.7 228.1 L 739.7 228.1" fill="none" stroke="#2f63d8" stroke-width="1.4" opacity="0.25"/><path d="M 782.5 226.2 L 782.5 226.2 L 782.5 456.2" fill="none" stroke="#2f63d8" stroke-width="1.4" opacity="0.26"/><path d="M 552.4 273.3 L 552.4 273.3 L 552.4 503.3" fill="none" stroke="#2f63d8" stroke-width="1.4" opacity="0.19"/><path d="M 554.2 138.4 L 646.2 138.4 L 646.2 230.4" fill="none" stroke="#2f63d8" stroke-width="1.4" opacity="0.14"/><path d="M 186.0 507.7 L 370.0 507.7 L 370.0 323.7" fill="none" stroke="#2f63d8" stroke-width="1.4" opacity="0.24"/><path d="M 596.6 321.6 L 734.6 321.6 L 734.6 183.6" fill="none" stroke="#2f63d8" stroke-width="1.4" opacity="0.24"/><path d="M 187.6 777.7 L 371.6 777.7 L 371.6 593.7" fill="none" stroke="#2f63d8" stroke-width="1.4" opacity="0.18"/><path d="M 603.0 785.9 L 787.0 785.9 L 787.0 785.9" fill="none" stroke="#2f63d8" stroke-width="1.4" opacity="0.25"/><path d="M 510.4 549.9 L 694.4 549.9 L 694.4 549.9" fill="none" stroke="#2f63d8" stroke-width="1.4" opacity="0.14"/><path d="M 455.5 324.3 L 547.5 324.3 L 547.5 232.3" fill="none" stroke="#2f63d8" stroke-width="1.4" opacity="0.14"/><path d="M 506.7 370.2 L 690.7 370.2 L 690.7 186.2" fill="none" stroke="#2f63d8" stroke-width="1.4" opacity="0.18"/><path d="M 230.8 367.1 L 368.8 367.1 L 368.8 229.1" fill="none" stroke="#2f63d8" stroke-width="1.4" opacity="0.27"/><path d="M 551.3 455.8 L 643.3 455.8 L 643.3 547.8" fill="none" stroke="#2f63d8" stroke-width="1.4" opacity="0.20"/><path d="M 462.8 226.7 L 646.8 226.7 L 646.8 42.7" fill="none" stroke="#2f63d8" stroke-width="1.4" opacity="0.14"/><path d="M 554.8 89.4 L 646.8 89.4 L 646.8 181.4" fill="none" stroke="#2f63d8" stroke-width="1.4" opacity="0.21"/><path d="M 640.3 227.5 L 640.3 227.5 L 640.3 319.5" fill="none" stroke="#2f63d8" stroke-width="1.4" opacity="0.12"/><path d="M 502.3 829.1 L 732.3 829.1 L 732.3 599.1" fill="none" stroke="#2f63d8" stroke-width="1.4" opacity="0.16"/></g>
  <g filter="url(#glow)"><circle cx="506.8" cy="548.6" r="2.0" fill="#4f8bff" opacity="0.88"/><circle cx="553.9" cy="409.9" r="1.8" fill="#4f8bff" opacity="0.74"/><circle cx="138.6" cy="370.1" r="2.2" fill="#4f8bff" opacity="0.87"/><circle cx="318.4" cy="549.6" r="1.8" fill="#4f8bff" opacity="0.60"/><circle cx="49.4" cy="732.4" r="1.6" fill="#c98a2a" opacity="0.94"/><circle cx="49.4" cy="737.8" r="3.0" fill="#4f8bff" opacity="0.94"/><circle cx="409.0" cy="648.6" r="2.8" fill="#4f8bff" opacity="0.76"/><circle cx="234.9" cy="460.5" r="1.9" fill="#4f8bff" opacity="0.63"/><circle cx="233.2" cy="782.6" r="2.4" fill="#4f8bff" opacity="0.79"/><circle cx="463.6" cy="371.6" r="1.7" fill="#4f8bff" opacity="0.60"/><circle cx="737.7" cy="504.0" r="2.0" fill="#4f8bff" opacity="0.61"/><circle cx="740.1" cy="456.2" r="2.4" fill="#c98a2a" opacity="0.74"/><circle cx="97.0" cy="363.0" r="1.7" fill="#4f8bff" opacity="0.64"/><circle cx="828.1" cy="737.6" r="1.9" fill="#4f8bff" opacity="0.81"/><circle cx="781.1" cy="507.7" r="2.2" fill="#4f8bff" opacity="0.71"/><circle cx="183.7" cy="274.9" r="1.7" fill="#4f8bff" opacity="0.67"/><circle cx="417.3" cy="320.1" r="1.7" fill="#4f8bff" opacity="0.91"/><circle cx="645.0" cy="596.2" r="2.2" fill="#4f8bff" opacity="0.84"/><circle cx="827.3" cy="509.8" r="1.8" fill="#4f8bff" opacity="0.95"/><circle cx="137.2" cy="231.9" r="2.2" fill="#4f8bff" opacity="0.95"/><circle cx="694.2" cy="277.6" r="2.1" fill="#4f8bff" opacity="0.87"/><circle cx="232.8" cy="180.7" r="2.4" fill="#4f8bff" opacity="0.63"/><circle cx="780.3" cy="597.5" r="2.8" fill="#4f8bff" opacity="0.89"/><circle cx="872.3" cy="597.5" r="1.8" fill="#4f8bff" opacity="0.68"/><circle cx="685.9" cy="233.7" r="3.0" fill="#4f8bff" opacity="0.73"/><circle cx="185.8" cy="182.8" r="2.3" fill="#4f8bff" opacity="0.97"/><circle cx="506.9" cy="779.2" r="2.5" fill="#4f8bff" opacity="0.90"/><circle cx="277.1" cy="694.6" r="2.5" fill="#4f8bff" opacity="0.61"/><circle cx="642.1" cy="639.0" r="2.8" fill="#4f8bff" opacity="0.69"/><circle cx="692.2" cy="138.4" r="1.7" fill="#4f8bff" opacity="0.84"/><circle cx="552.4" cy="503.3" r="2.1" fill="#4f8bff" opacity="0.91"/><circle cx="646.2" cy="230.4" r="1.7" fill="#4f8bff" opacity="0.72"/><circle cx="371.6" cy="593.7" r="2.8" fill="#4f8bff" opacity="0.79"/><circle cx="787.0" cy="785.9" r="2.6" fill="#4f8bff" opacity="0.64"/><circle cx="547.5" cy="232.3" r="2.7" fill="#4f8bff" opacity="0.79"/><circle cx="690.7" cy="186.2" r="2.5" fill="#4f8bff" opacity="0.70"/><circle cx="643.3" cy="547.8" r="2.1" fill="#4f8bff" opacity="0.68"/><circle cx="646.8" cy="42.7" r="2.2" fill="#4f8bff" opacity="0.99"/><circle cx="646.8" cy="181.4" r="2.2" fill="#4f8bff" opacity="0.83"/></g>
  <rect width="880" height="820" fill="url(#vg)"/>
</svg>