<svg xmlns="http://www.w3.org/2000/svg" viewBox="0 0 680 460" preserveAspectRatio="xMidYMid slice" width="680" height="460">
  <defs>
    <radialGradient id="bg" cx="72%" cy="32%" r="95%">
      <stop offset="0%" stop-color="#1d4488"/>
      <stop offset="100%" stop-color="#102a52"/>
    </radialGradient>
    <radialGradient id="vg" cx="50%" cy="42%" r="78%">
      <stop offset="52%" stop-color="#102a52" stop-opacity="0"/>
      <stop offset="100%" stop-color="#102a52" stop-opacity="0.72"/>
    </radialGradient>
    <filter id="glow" x="-30%" y="-30%" width="160%" height="160%">
      <feGaussianBlur stdDeviation="1.8" result="b"/>
      <feMerge><feMergeNode in="b"/><feMergeNode in="SourceGraphic"/></feMerge>
    </filter>
  </defs>
  <rect width="680" height="460" fill="url(#bg)"/>
  <g><rect x="334.0" y="266.7" width="92" height="92" rx="4" fill="none" stroke="#5d8dff" stroke-width="1.2" opacity="0.24"/><line x1="347.1" y1="260.7" x2="347.1" y2="266.7" stroke="#5d8dff" stroke-width="1" opacity="0.18"/><line x1="347.1" y1="358.7" x2="347.1" y2="364.7" stroke="#5d8dff" stroke-width="1" opacity="0.18"/><line x1="360.2" y1="260.7" x2="360.2" y2="266.7" stroke="#5d8dff" stroke-width="1" opacity="0.18"/><line x1="360.2" y1="358.7" x2="360.2" y2="364.7" stroke="#5d8dff" stroke-width="1" opacity="0.18"/><line x1="373.4" y1="260.7" x2="373.4" y2="266.7" stroke="#5d8dff" stroke-width="1" opacity="0.18"/><line x1="373.4" y1="358.7" x2="373.4" y2="364.7" stroke="#5d8dff" stroke-width="1" opacity="0.18"/><line x1="386.5" y1="260.7" x2="386.5" y2="266.7" stroke="#5d8dff" stroke-width="1" opacity="0.18"/><line x1="386.5" y1="358.7" x2="386.5" y2="364.7" stroke="#5d8dff" stroke-width="1" opacity="0.18"/><line x1="399.7" y1="260.7" x2="399.7" y2="266.7" stroke="#5d8dff" stroke-width="1" opacity="0.18"/><line x1="399.7" y1="358.7" x2="399.7" y2="364.7" stroke="#5d8dff" stroke-width="1" opacity="0.18"/><line x1="412.8" y1="260.7" x2="412.8" y2="266.7" stroke="#5d8dff" stroke-width="1" opacity="0.18"/><line x1="412.8" y1="358.7" x2="412.8" y2="364.7" stroke="#5d8dff" stroke-width="1" opacity="0.18"/><rect x="361.6" y="294.3" width="36.8" height="36.8" rx="2" fill="#5d8dff" opacity="0.12"/><rect x="297.8" y="223.9" width="92" height="138" rx="4" fill="none" stroke="#5d8dff" stroke-width="1.2" opacity="0.24"/><line x1="311.0" y1="217.9" x2="311.0" y2="223.9" stroke="#5d8dff" stroke-width="1" opacity="0.18"/><line x1="311.0" y1="361.9" x2="311.0" y2="367.9" stroke="#5d8dff" stroke-width="1" opacity="0.18"/><line x1="324.1" y1="217.9" x2="324.1" y2="223.9" stroke="#5d8dff" stroke-width="1" opacity="0.18"/><line x1="324.1" y1="361.9" x2="324.1" y2="367.9" stroke="#5d8dff" stroke-width="1" opacity="0.18"/><line x1="337.3" y1="217.9" x2="337.3" y2="223.9" stroke="#5d8dff" stroke-width="1" opacity="0.18"/><line x1="337.3" y1="361.9" x2="337.3" y2="367.9" stroke="#5d8dff" stroke-width="1" opacity="0.18"/><line x1="350.4" y1="217.9" x2="350.4" y2="223.9" stroke="#5d8dff" stroke-width="1" opacity="0.18"/><line x1="350.4" y1="361.9" x2="350.4" y2="367.9" stroke="#5d8dff" stroke-width="1" opacity="0.18"/><line x1="363.6" y1="217.9" x2="363.6" y2="223.9" stroke="#5d8dff" stroke-width="1" opacity="0.18"/><line x1="363.6" y1="361.9" x2="363.6" y2="367.9" stroke="#5d8dff" stroke-width="1" opacity="0.18"/><line x1="376.7" y1="217.9" x2="376.7" y2="223.9" stroke="#5d8dff" stroke-width="1" opacity="0.18"/><line x1="376.7" y1="361.9" x2="376.7" y2="367.9" stroke="#5d8dff" stroke-width="1" opacity="0.18"/><rect x="325.4" y="265.3" width="36.8" height="55.2" rx="2" fill="#5d8dff" opacity="0.12"/><rect x="144.0" y="317.2" width="184" height="92" rx="4" fill="none" stroke="#5d8dff" stroke-width="1.2" opacity="0.24"/><line x1="156.3" y1="311.2" x2="156.3" y2="317.2" stroke="#5d8dff" stroke-width="1" opacity="0.18"/><line x1="156.3" y1="409.2" x2="156.3" y2="415.2" stroke="#5d8dff" stroke-width="1" opacity="0.18"/><line x1="168.6" y1="311.2" x2="168.6" y2="317.2" stroke="#5d8dff" stroke-width="1" opacity="0.18"/><line x1="168.6" y1="409.2" x2="168.6" y2="415.2" stroke="#5d8dff" stroke-width="1" opacity="0.18"/><line x1="180.8" y1="311.2" x2="180.8" y2="317.2" stroke="#5d8dff" stroke-width="1" opacity="0.18"/><line x1="180.8" y1="409.2" x2="180.8" y2="415.2" stroke="#5d8dff" stroke-width="1" opacity="0.18"/><line x1="193.1" y1="311.2" x2="193.1" y2="317.2" stroke="#5d8dff" stroke-width="1" opacity="0.18"/><line x1="193.1" y1="409.2" x2="193.1" y2="415.2" stroke="#5d8dff" stroke-width="1" opacity="0.18"/><line x1="205.4" y1="311.2" x2="205.4" y2="317.2" stroke="#5d8dff" stroke-width="1" opacity="0.18"/><line x1="205.4" y1="409.2" x2="205.4" y2="415.2" stroke="#5d8dff" stroke-width="1" opacity="0.18"/><line x1="217.6" y1="311.2" x2="217.6" y2="317.2" stroke="#5d8dff" stroke-width="1" opacity="0.18"/><line x1="217.6" y1="409.2" x2="217.6" y2="415.2" stroke="#5d8dff" stroke-width="1" opacity="0.18"/><line x1="229.9" y1="311.2" x2="229.9" y2="317.2" stroke="#5d8dff" stroke-width="1" opacity="0.18"/><line x1="229.9" y1="409.2" x2="229.9" y2="415.2" stroke="#5d8dff" stroke-width="1" opacity="0.18"/><line x1="242.2" y1="311.2" x2="242.2" y2="317.2" stroke="#5d8dff" stroke-width="1" opacity="0.18"/><line x1="242.2" y1="409.2" x2="242.2" y2="415.2" stroke="#5d8dff" stroke-width="1" opacity="0.18"/><line x1="254.4" y1="311.2" x2="254.4" y2="317.2" stroke="#5d8dff" stroke-width="1" opacity="0.18"/><line x1="254.4" y1="409.2" x2="254.4" y2="415.2" stroke="#5d8dff" stroke-width="1" opacity="0.18"/><line x1="266.7" y1="311.2" x2="266.7" y2="317.2" stroke="#5d8dff" stroke-width="1" opacity="0.18"/><line x1="266.7" y1="409.2" x2="266.7" y2="415.2" stroke="#5d8dff" stroke-width="1" opacity="0.18"/><line x1="279.0" y1="311.2" x2="279.0" y2="317.2" stroke="#5d8dff" stroke-width="1" opacity="0.18"/><line x1="279.0" y1="409.2" x2="279.0" y2="415.2" stroke="#5d8dff" stroke-width="1" opacity="0.18"/><line x1="291.2" y1="311.2" x2="291.2" y2="317.2" stroke="#5d8dff" stroke-width="1" opacity="0.18"/><line x1="291.2" y1="409.2" x2="291.2" y2="415.2" stroke="#5d8dff" stroke-width="1" opacity="0.18"/><line x1="303.5" y1="311.2" x2="303.5" y2="317.2" stroke="#5d8dff" stroke-width="1" opacity="0.18"/><line x1="303.5" y1="409.2" x2="303.5" y2="415.2" stroke="#5d8dff" stroke-width="1" opacity="0.18"/><line x1="315.8" y1="311.2" x2="315.8" y2="317.2" stroke="#5d8dff" stroke-width="1" opacity="0.18"/><line x1="315.8" y1="409.2" x2="315.8" y2="415.2" stroke="#5d8dff" stroke-width="1" opacity="0.18"/><rect x="199.2" y="344.8" width="73.6" height="36.8" rx="2" fill="#5d8dff" opacity="0.12"/></g>
  <g><rect x="42.8" y="-2.0" width="8.0" height="8.0" rx="1" fill="#5d8dff" opacity="0.25"/><rect x="504.7" y="-2.8" width="6.0" height="6.0" rx="1" fill="#5d8dff" opacity="0.35"/><rect x="224.0" y="41.2" width="6.0" height="6.0" rx="1" fill="#5d8dff" opacity="0.29"/><rect x="504.2" y="40.5" width="6.0" height="6.0" rx="1" fill="#5d8dff" opacity="0.18"/><rect x="90.5" y="87.9" width="6.0" height="6.0" rx="1" fill="#5d8dff" opacity="0.30"/><rect x="459.9" y="86.0" width="8.0" height="8.0" rx="1" fill="#5d8dff" opacity="0.21"/><rect x="501.4" y="90.6" width="6.0" height="6.0" rx="1" fill="#5d8dff" opacity="0.18"/><rect x="46.8" y="138.2" width="6.0" height="6.0" rx="1" fill="#5d8dff" opacity="0.26"/><rect x="184.2" y="130.3" width="6.0" height="6.0" rx="1" fill="#5d8dff" opacity="0.34"/><rect x="270.3" y="131.1" width="6.0" height="6.0" rx="1" fill="#5d8dff" opacity="0.23"/><rect x="552.2" y="134.6" width="6.0" height="6.0" rx="1" fill="#5d8dff" opacity="0.17"/><rect x="687.4" y="130.7" width="6.0" height="6.0" rx="1" fill="#5d8dff" opacity="0.30"/><rect x="46.3" y="181.3" width="6.0" height="6.0" rx="1" fill="#5d8dff" opacity="0.29"/><rect x="413.5" y="178.8" width="6.0" height="6.0" rx="1" fill="#5d8dff" opacity="0.25"/><rect x="135.9" y="221.4" width="8.0" height="8.0" rx="1" fill="#5d8dff" opacity="0.28"/><rect x="457.8" y="222.6" width="10.0" height="10.0" rx="1" fill="#5d8dff" opacity="0.19"/><rect x="542.4" y="227.3" width="10.0" height="10.0" rx="1" fill="#5d8dff" opacity="0.36"/><rect x="591.6" y="224.4" width="6.0" height="6.0" rx="1" fill="#5d8dff" opacity="0.32"/><rect x="223.5" y="273.3" width="8.0" height="8.0" rx="1" fill="#5d8dff" opacity="0.22"/><rect x="269.7" y="321.7" width="6.0" height="6.0" rx="1" fill="#5d8dff" opacity="0.21"/><rect x="594.5" y="321.8" width="6.0" height="6.0" rx="1" fill="#5d8dff" opacity="0.18"/><rect x="685.7" y="317.4" width="10.0" height="10.0" rx="1" fill="#5d8dff" opacity="0.32"/><rect x="0.5" y="362.0" width="6.0" height="6.0" rx="1" fill="#5d8dff" opacity="0.20"/><rect x="502.5" y="368.8" width="8.0" height="8.0" rx="1" fill="#5d8dff" opacity="0.25"/><rect x="592.6" y="365.5" width="6.0" height="6.0" rx="1" fill="#5d8dff" opacity="0.32"/><rect x="43.5" y="415.0" width="6.0" height="6.0" rx="1" fill="#5d8dff" opacity="0.21"/><rect x="223.1" y="406.1" width="10.0" height="10.0" rx="1" fill="#5d8dff" opacity="0.22"/><rect x="322.8" y="415.0" width="6.0" height="6.0" rx="1" fill="#5d8dff" opacity="0.30"/><rect x="411.7" y="415.3" width="6.0" height="6.0" rx="1" fill="#5d8dff" opacity="0.16"/><rect x="458.0" y="414.3" width="8.0" height="8.0" rx="1" fill="#5d8dff" opacity="0.23"/><rect x="229.2" y="460.8" width="6.0" height="6.0" rx="1" fill="#5d8dff" opacity="0.21"/><rect x="273.7" y="451.8" width="10.0" height="10.0" rx="1" fill="#5d8dff" opacity="0.24"/><rect x="362.7" y="453.7" width="6.0" height="6.0" rx="1" fill="#5d8dff" opacity="0.30"/><rect x="405.6" y="454.7" width="10.0" height="10.0" rx="1" fill="#5d8dff" opacity="0.36"/><rect x="680.7" y="456.4" width="10.0" height="10.0" rx="1" fill="#5d8dff" opacity="0.18"/></g>
  <g><path d="M 141.9 91.8 L 279.9 91.8 L 279.9 229.8" fill="none" stroke="#5d8dff" stroke-width="1.4" opacity="0.13"/><path d="M 416.2 137.8 L 646.2 137.8 L 646.2 137.8" fill="none" stroke="#5d8dff" stroke-width="1.4" opacity="0.11"/><path d="M 139.9 225.4 L 277.9 225.4 L 277.9 363.4" fill="none" stroke="#5d8dff" stroke-width="1.4" opacity="0.26"/><path d="M 504.7 141.2 L 504.7 141.2 L 504.7 279.2" fill="none" stroke="#5d8dff" stroke-width="1.4" opacity="0.14"/><path d="M 645.2 89.6 L 645.2 89.6 L 645.2 181.6" fill="none" stroke="#5d8dff" stroke-width="1.4" opacity="0.27"/><path d="M 228.1 411.1 L 458.1 411.1 L 458.1 181.1" fill="none" stroke="#5d8dff" stroke-width="1.4" opacity="0.15"/><path d="M 180.3 231.4 L 318.3 231.4 L 318.3 369.4" fill="none" stroke="#5d8dff" stroke-width="1.4" opacity="0.22"/><path d="M 369.3 234.0 L 553.3 234.0 L 553.3 50.0" fill="none" stroke="#5d8dff" stroke-width="1.4" opacity="0.25"/><path d="M 411.3 89.6 L 411.3 89.6 L 411.3 181.6" fill="none" stroke="#5d8dff" stroke-width="1.4" opacity="0.23"/><path d="M 141.1 413.7 L 325.1 413.7 L 325.1 413.7" fill="none" stroke="#5d8dff" stroke-width="1.4" opacity="0.18"/><path d="M 228.8 319.9 L 320.8 319.9 L 320.8 411.9" fill="none" stroke="#5d8dff" stroke-width="1.4" opacity="0.27"/><path d="M 95.4 363.3 L 187.4 363.3 L 187.4 363.3" fill="none" stroke="#5d8dff" stroke-width="1.4" opacity="0.13"/><path d="M 647.2 233.3 L 647.2 233.3 L 647.2 371.3" fill="none" stroke="#5d8dff" stroke-width="1.4" opacity="0.15"/><path d="M 462.8 227.6 L 462.8 227.6 L 462.8 319.6" fill="none" stroke="#5d8dff" stroke-width="1.4" opacity="0.25"/><path d="M 272.2 180.9 L 456.2 180.9 L 456.2 364.9" fill="none" stroke="#5d8dff" stroke-width="1.4" opacity="0.27"/><path d="M 227.5 277.3 L 365.5 277.3 L 365.5 139.3" fill="none" stroke="#5d8dff" stroke-width="1.4" opacity="0.26"/><path d="M 93.5 90.9 L 277.5 90.9 L 277.5 90.9" fill="none" stroke="#5d8dff" stroke-width="1.4" opacity="0.22"/><path d="M 89.3 44.5 L 273.3 44.5 L 273.3 44.5" fill="none" stroke="#5d8dff" stroke-width="1.4" opacity="0.20"/><path d="M 228.3 93.9 L 320.3 93.9 L 320.3 185.9" fill="none" stroke="#5d8dff" stroke-width="1.4" opacity="0.21"/><path d="M 275.4 -2.1 L 459.4 -2.1 L 459.4 181.9" fill="none" stroke="#5d8dff" stroke-width="1.4" opacity="0.20"/><path d="M 647.1 138.5 L 647.1 138.5 L 647.1 368.5" fill="none" stroke="#5d8dff" stroke-width="1.4" opacity="0.30"/><path d="M 139.9 225.4 L 139.9 225.4 L 139.9 455.4" fill="none" stroke="#5d8dff" stroke-width="1.4" opacity="0.22"/><path d="M 43.6 280.9 L 181.6 280.9 L 181.6 142.9" fill="none" stroke="#5d8dff" stroke-width="1.4" opacity="0.22"/><path d="M 275.4 -2.1 L 413.4 -2.1 L 413.4 135.9" fill="none" stroke="#5d8dff" stroke-width="1.4" opacity="0.28"/></g>
  <g filter="url(#glow)"><circle cx="279.9" cy="229.8" r="2.0" fill="#86abff" opacity="0.95"/><circle cx="277.9" cy="363.4" r="2.2" fill="#86abff" opacity="0.63"/><circle cx="458.1" cy="181.1" r="2.6" fill="#86abff" opacity="0.66"/><circle cx="318.3" cy="369.4" r="1.8" fill="#86abff" opacity="0.73"/><circle cx="553.3" cy="50.0" r="2.3" fill="#86abff" opacity="0.98"/><circle cx="411.3" cy="181.6" r="2.4" fill="#86abff" opacity="0.70"/><circle cx="325.1" cy="413.7" r="2.8" fill="#86abff" opacity="0.83"/><circle cx="187.4" cy="363.3" r="2.1" fill="#86abff" opacity="0.74"/><circle cx="365.5" cy="139.3" r="2.1" fill="#86abff" opacity="0.79"/><circle cx="277.5" cy="90.9" r="2.9" fill="#e3a23e" opacity="0.72"/><circle cx="273.3" cy="44.5" r="3.0" fill="#86abff" opacity="0.94"/><circle cx="320.3" cy="185.9" r="2.2" fill="#86abff" opacity="0.79"/></g>
  <rect width="680" height="460" fill="url(#vg)"/>
</svg>